<svg width="98" height="110" viewBox="0 0 98 110" fill="none" xmlns="http://www.w3.org/2000/svg">
<path fill-rule="evenodd" clip-rule="evenodd" d="M50.4476 11.8897L57.1677 15.7689C57.423 14.5737 57.4078 13.3365 57.1234 12.1479C56.839 10.9593 56.2924 9.84928 55.5238 8.89909C54.7551 7.9489 53.7837 7.18256 52.6808 6.65613C51.5778 6.12969 50.3711 5.85648 49.1489 5.85648C47.9267 5.85648 46.72 6.12969 45.617 6.65613C44.514 7.18256 43.5427 7.9489 42.774 8.89909C42.0053 9.84928 41.4588 10.9593 41.1744 12.1479C40.8899 13.3365 40.8748 14.5737 41.1301 15.7689L47.8828 11.868C48.2728 11.6441 48.7154 11.5281 49.1651 11.5319C49.6148 11.5357 50.0554 11.6592 50.4415 11.8897H50.4476ZM18.7341 34.5594L21.6824 36.262C21.9179 35.1392 21.9179 33.9796 21.6824 32.8568L18.7305 34.557L18.7341 34.5594ZM26.2224 38.8859L46.607 50.6549V27.1037C44.0115 26.5981 41.6264 25.3283 39.7579 23.4573C39.5384 23.2378 39.3274 23.0111 39.1248 22.7772L32.8074 26.4236C32.7652 26.4514 32.7218 26.4791 32.6772 26.5056L26.2236 30.2305C27.1842 33.0344 27.1842 36.0784 26.2236 38.8823L26.2224 38.8859ZM39.1308 63.7611L26.2224 71.2023C27.183 74.0062 27.183 77.0502 26.2224 79.8541L32.676 83.579L39.126 87.3026C39.3286 87.0686 39.5396 86.8419 39.7591 86.6225C41.6276 84.7515 44.0127 83.4816 46.6082 82.976L46.607 59.4406L39.1308 63.7611ZM21.6788 73.8286L18.7305 75.5312L21.68 77.2314C21.9155 76.1086 21.9155 74.949 21.68 73.8262L21.6788 73.8286ZM16.2043 71.1408L19.1453 69.443C18.2946 68.6763 17.2928 68.0963 16.2043 67.7403V71.1408ZM23.6805 66.8215C23.4771 66.5876 23.2657 66.3609 23.0462 66.1414C21.1787 64.2696 18.7937 62.9997 16.1983 62.495V47.5933C18.7952 47.0901 21.1823 45.8214 23.0522 43.9504C23.2717 43.731 23.4831 43.5043 23.6865 43.2703L44.0856 55.0441L23.6865 66.8251L23.6805 66.8215ZM19.1453 40.6452L16.2043 38.9474V42.3479C17.2928 41.9919 18.2946 41.4119 19.1453 40.6452ZM46.607 91.6315V88.2311C45.5179 88.5856 44.5158 89.1658 43.666 89.9337L46.607 91.6315ZM54.2146 55.0441L74.6137 66.8215C74.8163 66.5876 75.0285 66.3609 75.2467 66.1414C77.1149 64.2698 79.5002 62.9999 82.0959 62.495V47.5933C79.5004 47.0877 77.1153 45.8178 75.2467 43.9468C75.0285 43.7274 74.8163 43.5007 74.6137 43.2667L54.2146 55.0441ZM79.1548 69.443L82.0959 71.1408V67.7403C81.0074 68.0963 80.0055 68.6763 79.1548 69.443ZM79.5697 75.5312L76.6214 73.8286C76.3859 74.9515 76.3859 76.111 76.6214 77.2339L79.5697 75.5312ZM72.0778 71.2023C71.1172 74.0062 71.1172 77.0502 72.0778 79.8541L65.6242 83.579C65.5796 83.6055 65.5362 83.632 65.494 83.661L59.1766 87.3074C58.974 87.0735 58.763 86.8468 58.5435 86.6273C56.675 84.7563 54.2899 83.4865 51.6944 82.9809L51.6932 59.437L72.079 71.2059L72.0778 71.2023ZM51.6932 88.2311V91.6315L54.6342 89.9337C53.7842 89.166 52.7822 88.5859 51.6932 88.2311ZM82.0959 38.9474L79.1548 40.6452C80.0055 41.4119 81.0074 41.9919 82.0959 42.3479V38.9474ZM46.607 21.8572V18.4579L43.666 20.1545C44.5158 20.9224 45.5179 21.5026 46.607 21.8572ZM51.6932 18.4579V21.8572C52.7822 21.5023 53.7842 20.9222 54.6342 20.1545L51.6932 18.4579ZM51.6932 27.1037C54.2887 26.5981 56.6738 25.3283 58.5423 23.4573C58.7618 23.2378 58.9728 23.0111 59.1754 22.7772L65.6254 26.5008L72.079 30.2256C71.1184 33.0296 71.1184 36.0735 72.079 38.8775L51.6932 50.6513V27.1037ZM76.6214 36.2596L79.5697 34.557L76.6202 32.8568C76.3847 33.9796 76.3847 35.1392 76.6202 36.262L76.6214 36.2596ZM23.6853 84.2518C23.4827 84.4849 23.2725 84.71 23.0546 84.9271C21.5866 86.3949 19.795 87.4982 17.8235 88.1484C15.8521 88.7986 13.7556 88.9776 11.7024 88.6712C9.64925 88.3647 7.69648 87.5812 6.00083 86.3836C4.30517 85.186 2.91383 83.6076 1.93846 81.7751C0.963086 79.9426 0.430826 77.9069 0.384395 75.8315C0.337963 73.7561 0.77865 71.6987 1.67109 69.8244C2.56354 67.9501 3.8829 66.3111 5.52329 65.0388C7.16369 63.7666 9.07947 62.8966 11.1169 62.4986V47.5933C9.07884 47.1958 7.16235 46.326 5.52125 45.0538C3.88016 43.7817 2.56016 42.1424 1.66721 40.2678C0.774262 38.3931 0.333233 36.3353 0.379522 34.2593C0.425811 32.1834 0.95813 30.1472 1.93375 28.3142C2.90937 26.4812 4.30112 24.9025 5.99729 23.7047C7.69346 22.507 9.64682 21.7235 11.7006 21.4173C13.7543 21.111 15.8513 21.2905 17.8231 21.9413C19.7949 22.5921 21.5867 23.6962 23.0546 25.1648C23.2729 25.383 23.4827 25.6073 23.6853 25.84L30.1365 22.1152C30.1823 22.0887 30.2294 22.0634 30.2776 22.0392L36.5913 18.3952C35.9032 16.3947 35.7029 14.2589 36.007 12.1653C36.311 10.0718 37.1107 8.08118 38.3395 6.35912C39.5682 4.63706 41.1905 3.23338 43.0713 2.26491C44.9521 1.29643 47.037 0.791164 49.1525 0.791164C51.268 0.791164 53.3529 1.29643 55.2337 2.26491C57.1145 3.23338 58.7368 4.63706 59.9655 6.35912C61.1943 8.08118 61.994 10.0718 62.298 12.1653C62.6021 14.2589 62.4018 16.3947 61.7137 18.3952L68.1661 22.12L74.6173 25.8448C74.8187 25.6121 75.0297 25.3878 75.2467 25.1696C76.7148 23.7018 78.5064 22.5985 80.4779 21.9483C82.4493 21.2981 84.5458 21.119 86.599 21.4255C88.6521 21.732 90.6049 22.5154 92.3006 23.713C93.9962 24.9106 95.3876 26.489 96.3629 28.3216C97.3383 30.1541 97.8706 32.1897 97.917 34.2651C97.9634 36.3405 97.5227 38.3979 96.6303 40.2723C95.7378 42.1466 94.4185 43.7856 92.7781 45.0578C91.1377 46.3301 89.2219 47.2001 87.1845 47.5981V62.495C89.2225 62.8924 91.139 63.7622 92.7801 65.0344C94.4212 66.3066 95.7412 67.9458 96.6342 69.8204C97.5271 71.6951 97.9682 73.7529 97.9219 75.8289C97.8756 77.9048 97.3433 79.941 96.3676 81.774C95.392 83.607 94.0003 85.1857 92.3041 86.3835C90.6079 87.5813 88.6546 88.3647 86.6008 88.671C84.5471 88.9772 82.4501 88.7977 80.4783 88.1469C78.5065 87.4961 76.7147 86.3921 75.2467 84.9235C75.0297 84.7064 74.8187 84.4809 74.6173 84.2482L68.1661 87.9718C68.1203 87.9995 68.072 88.0249 68.025 88.049L61.7113 91.7015C62.3993 93.7019 62.5997 95.8378 62.2956 97.9313C61.9916 100.025 61.1919 102.015 59.9631 103.738C58.7344 105.46 57.1121 106.863 55.2313 107.832C53.3505 108.8 51.2656 109.305 49.1501 109.305C47.0346 109.305 44.9497 108.8 43.0689 107.832C41.1881 106.863 39.5658 105.46 38.3371 103.738C37.1083 102.015 36.3086 100.025 36.0046 97.9313C35.7005 95.8378 35.9008 93.7019 36.5889 91.7015L30.1365 87.9766L23.6853 84.2518ZM11.1169 67.7403V75.5336H11.1229C11.1224 75.9786 11.2392 76.4159 11.4615 76.8014C11.6837 77.1868 12.0037 77.507 12.389 77.7295L19.1417 81.6279C18.2344 82.4464 17.1556 83.0518 15.9843 83.3997C14.813 83.7477 13.5787 83.8294 12.3717 83.639C11.1647 83.4486 10.0155 82.9909 9.00814 82.2992C8.0008 81.6076 7.16077 80.6995 6.54949 79.6415C5.9382 78.5835 5.57112 77.4022 5.47507 76.184C5.37902 74.9659 5.55644 73.7417 5.99435 72.6009C6.43227 71.4601 7.11961 70.4317 8.00611 69.5907C8.8926 68.7497 9.95586 68.1175 11.1181 67.7403H11.1169ZM87.1833 67.7403C88.3455 68.1175 89.4088 68.7497 90.2953 69.5907C91.1818 70.4317 91.8691 71.4601 92.307 72.6009C92.7449 73.7417 92.9224 74.9659 92.8263 76.184C92.7303 77.4022 92.3632 78.5835 91.7519 79.6415C91.1406 80.6995 90.3006 81.6076 89.2932 82.2992C88.2859 82.9909 87.1367 83.4486 85.9297 83.639C84.7227 83.8294 83.4884 83.7477 82.3171 83.3997C81.1457 83.0518 80.067 82.4464 79.1597 81.6279L85.7508 77.8223C86.1807 77.6136 86.5431 77.288 86.7965 76.8828C87.0498 76.4775 87.1839 76.0091 87.1833 75.5312V67.7403ZM57.1677 94.3193L50.415 98.2202C50.025 98.4441 49.5824 98.5601 49.1327 98.5563C48.683 98.5525 48.2424 98.429 47.8562 98.1985L41.1361 94.3193C40.8808 95.5145 40.896 96.7517 41.1804 97.9403C41.4648 99.1289 42.0114 100.239 42.78 101.189C43.5487 102.139 44.5201 102.906 45.623 103.432C46.726 103.959 47.9327 104.232 49.1549 104.232C50.3771 104.232 51.5838 103.959 52.6868 103.432C53.7898 102.906 54.7611 102.139 55.5298 101.189C56.2985 100.239 56.845 99.1289 57.1294 97.9403C57.4139 96.7517 57.429 95.5145 57.1737 94.3193H57.1677ZM11.1169 42.3479C9.95465 41.9707 8.8914 41.3385 8.0049 40.4975C7.1184 39.6565 6.43106 38.6281 5.99315 37.4873C5.55523 36.3465 5.37781 35.1223 5.47386 33.9042C5.56991 32.686 5.937 31.5048 6.54828 30.4467C7.15957 29.3887 7.9996 28.4806 9.00694 27.789C10.0143 27.0974 11.1635 26.6396 12.3705 26.4492C13.5775 26.2588 14.8118 26.3406 15.9831 26.6885C17.1544 27.0365 18.2332 27.6418 19.1405 28.4603L12.5494 32.2659C12.1195 32.4746 11.7571 32.8002 11.5037 33.2055C11.2503 33.6107 11.1163 34.0791 11.1169 34.557V42.3503V42.3479ZM79.1597 28.4603C80.067 27.6418 81.1457 27.0365 82.3171 26.6885C83.4884 26.3406 84.7227 26.2588 85.9297 26.4492C87.1367 26.6396 88.2859 27.0974 89.2932 27.789C90.3006 28.4806 91.1406 29.3887 91.7519 30.4467C92.3632 31.5048 92.7303 32.686 92.8263 33.9042C92.9224 35.1223 92.7449 36.3465 92.307 37.4873C91.8691 38.6281 91.1818 39.6565 90.2953 40.4975C89.4088 41.3385 88.3455 41.9707 87.1833 42.3479V34.5546C87.1838 34.1096 87.067 33.6723 86.8447 33.2869C86.6225 32.9014 86.3025 32.5813 85.9172 32.3588L79.1597 28.4603Z" fill="url(#paint0_linear_15_2)"/>
<defs>
<linearGradient id="paint0_linear_15_2" x1="9.07114" y1="27.3968" x2="60.8068" y2="102.357" gradientUnits="userSpaceOnUse">
<stop stop-color="#9333EA"/>
<stop offset="1" stop-color="#4F46E5"/>
</linearGradient>
</defs>
</svg>
