<svg width="131" height="131" viewBox="0 0 131 131" fill="none" xmlns="http://www.w3.org/2000/svg">
<path d="M65.8176 0.813471L122.022 33.2632V98.1627L65.8176 130.612L9.613 98.1627V33.2632L65.8176 0.813471Z" fill="url(#paint0_linear_12_9)"/>
<path fill-rule="evenodd" clip-rule="evenodd" d="M66.8931 29.9214L72.4661 33.1384C72.6778 32.1472 72.6653 31.1213 72.4294 30.1355C72.1935 29.1498 71.7403 28.2293 71.1028 27.4413C70.4654 26.6533 69.6598 26.0178 68.7451 25.5812C67.8304 25.1446 66.8296 24.9181 65.8161 24.9181C64.8025 24.9181 63.8018 25.1446 62.8871 25.5812C61.9724 26.0178 61.1668 26.6533 60.5294 27.4413C59.8919 28.2293 59.4387 29.1498 59.2028 30.1355C58.9669 31.1213 58.9544 32.1472 59.1661 33.1384L64.7661 29.9034C65.0895 29.7177 65.4566 29.6215 65.8295 29.6247C66.2025 29.6279 66.5679 29.7303 66.8881 29.9214H66.8931ZM40.5931 48.7214L43.0381 50.1334C43.2334 49.2022 43.2334 48.2406 43.0381 47.3094L40.5901 48.7194L40.5931 48.7214ZM46.8031 52.3094L57.5031 58.4874C57.6711 58.2934 57.8461 58.1054 58.0281 57.9234C59.5773 56.3711 61.5554 55.3176 63.7081 54.8984V42.5384C61.5557 42.1191 59.5777 41.0661 58.0281 39.5144C57.8461 39.3324 57.6711 39.1444 57.5031 38.9504L52.2641 41.9744C52.2291 41.9974 52.1931 42.0204 52.1561 42.0424L46.8041 45.1314C47.6007 47.4568 47.6007 49.9811 46.8041 52.3064L46.8031 52.3094ZM61.2691 60.6614L63.7081 62.0694V59.2494C62.8053 59.5443 61.9744 60.0253 61.2691 60.6614ZM63.7081 69.3554L61.2691 70.7634C61.9744 71.3996 62.8053 71.8806 63.7081 72.1754V69.3554ZM57.5081 72.9384L46.8031 79.1094C47.5997 81.4348 47.5997 83.9591 46.8031 86.2844L52.1551 89.3734L57.5041 92.4614C57.6721 92.2674 57.8471 92.0794 58.0291 91.8974C59.5787 90.3458 61.5567 89.2927 63.7091 88.8734V76.5234C61.5564 76.1043 59.5783 75.0508 58.0291 73.4984C57.8471 73.3164 57.6721 73.1288 57.5041 72.9354L57.5081 72.9384ZM43.0351 81.2874L40.5901 82.6994L43.0361 84.1094C43.2314 83.1782 43.2314 82.2166 43.0361 81.2854L43.0351 81.2874ZM38.4951 79.0584L40.9341 77.6504C40.2286 77.0146 39.3978 76.5336 38.4951 76.2384V79.0584ZM44.6951 75.4764C44.5264 75.2824 44.3511 75.0944 44.1691 74.9124C42.6204 73.3602 40.6425 72.307 38.4901 71.8884V59.5304C40.6438 59.1132 42.6233 58.0611 44.1741 56.5094C44.3561 56.3274 44.5314 56.1394 44.7001 55.9454L55.4001 62.1234C54.6015 64.4495 54.6015 66.9754 55.4001 69.3014L44.7001 75.4794L44.6951 75.4764ZM59.1631 67.1234L61.6171 65.7094L59.1691 64.2954C58.9718 65.2278 58.9718 66.1911 59.1691 67.1234H59.1631ZM40.9341 53.7684L38.4951 52.3604V55.1804C39.3978 54.8853 40.2286 54.4043 40.9341 53.7684ZM63.7081 96.0514V93.2314C62.8049 93.5255 61.9739 94.0066 61.2691 94.6434L63.7081 96.0514ZM70.0171 65.7094L72.4661 67.1234C72.6634 66.1911 72.6634 65.2278 72.4661 64.2954L70.0171 65.7094ZM76.2341 69.2984L86.9341 75.4764C87.1021 75.2824 87.2781 75.0944 87.4591 74.9124C89.0083 73.3604 90.9865 72.3072 93.1391 71.8884V59.5304C90.9867 59.1111 89.0087 58.0581 87.4591 56.5064C87.2781 56.3244 87.1021 56.1364 86.9341 55.9424L76.2341 62.1204C77.0327 64.4465 77.0327 66.9724 76.2341 69.2984ZM90.7001 77.6504L93.1391 79.0584V76.2384C92.2364 76.5336 91.4056 77.0146 90.7001 77.6504ZM91.0441 82.6994L88.5991 81.2874C88.4038 82.2186 88.4038 83.1802 88.5991 84.1114L91.0441 82.6994ZM84.8311 79.1094C84.0344 81.4348 84.0344 83.9591 84.8311 86.2844L79.4791 89.3734C79.4421 89.3954 79.4061 89.4174 79.3711 89.4414L74.1321 92.4654C73.9641 92.2714 73.7891 92.0834 73.6071 91.9014C72.0575 90.3498 70.0795 89.2967 67.9271 88.8774V76.5234C70.0798 76.1043 72.0579 75.0508 73.6071 73.4984C73.7891 73.3164 73.9641 73.1288 74.1321 72.9354L84.8321 79.1124L84.8311 79.1094ZM70.3651 70.7604L67.9261 69.3524V72.1724C68.8289 71.8776 69.6598 71.3966 70.3651 70.7604ZM67.9261 93.2314V96.0514L70.3651 94.6434C69.6602 94.0068 68.8292 93.5257 67.9261 93.2314ZM93.1391 52.3604L90.7001 53.7684C91.4056 54.4043 92.2364 54.8853 93.1391 55.1804V52.3604ZM63.7081 38.1874V35.3684L61.2691 36.7754C61.9739 37.4123 62.8049 37.8934 63.7081 38.1874ZM67.9261 35.3684V38.1874C68.8292 37.8932 69.6602 37.4121 70.3651 36.7754L67.9261 35.3684ZM67.9261 42.5384C70.0785 42.1191 72.0565 41.0661 73.6061 39.5144C73.7881 39.3324 73.9631 39.1444 74.1311 38.9504L79.4801 42.0384L84.8321 45.1274C84.0354 47.4528 84.0354 49.9771 84.8321 52.3024L74.1321 58.4804C73.9641 58.2864 73.7891 58.0984 73.6071 57.9164C72.0576 56.3644 70.0796 55.311 67.9271 54.8914L67.9261 42.5384ZM67.9261 59.2464V62.0664L70.3651 60.6584C69.6598 60.0223 68.8289 59.5413 67.9261 59.2464ZM88.5991 50.1314L91.0441 48.7194L88.5981 47.3094C88.4028 48.2406 88.4028 49.2022 88.5981 50.1334L88.5991 50.1314ZM44.6991 89.9314C44.5311 90.1248 44.3568 90.3114 44.1761 90.4914C42.9587 91.7087 41.4729 92.6236 39.8379 93.1629C38.203 93.7021 36.4644 93.8506 34.7617 93.5964C33.059 93.3423 31.4395 92.6925 30.0333 91.6993C28.6271 90.7062 27.4733 89.3972 26.6644 87.8775C25.8555 86.3578 25.4141 84.6696 25.3756 82.9485C25.3371 81.2273 25.7026 79.5211 26.4427 77.9668C27.1828 76.4124 28.2769 75.0531 29.6373 73.9981C30.9977 72.943 32.5865 72.2215 34.2761 71.8914V59.5304C32.5859 59.2008 30.9966 58.4795 29.6356 57.4245C28.2747 56.3695 27.18 55.0101 26.4395 53.4554C25.6989 51.9008 25.3332 50.1942 25.3716 48.4726C25.41 46.751 25.8514 45.0624 26.6605 43.5423C27.4696 42.0222 28.6238 40.713 30.0304 39.7196C31.437 38.7263 33.057 38.0766 34.7601 37.8226C36.4633 37.5687 38.2023 37.7175 39.8376 38.2572C41.4728 38.797 42.9587 39.7125 44.1761 40.9304C44.3571 41.1114 44.5311 41.2974 44.6991 41.4904L50.0491 38.4014C50.0871 38.3794 50.1261 38.3584 50.1661 38.3384L55.4021 35.3164C54.8315 33.6575 54.6653 31.8862 54.9175 30.15C55.1696 28.4138 55.8328 26.763 56.8518 25.3349C57.8708 23.9068 59.2162 22.7427 60.776 21.9396C62.3357 21.1364 64.0647 20.7174 65.8191 20.7174C67.5735 20.7174 69.3025 21.1364 70.8622 21.9396C72.422 22.7427 73.7673 23.9068 74.7864 25.3349C75.8054 26.763 76.4685 28.4138 76.7207 30.15C76.9729 31.8862 76.8067 33.6575 76.2361 35.3164L81.5871 38.4054L86.9371 41.4944C87.1041 41.3014 87.2791 41.1154 87.4591 40.9344C88.6765 39.7172 90.1623 38.8022 91.7973 38.263C93.4322 37.7238 95.1708 37.5753 96.8735 37.8295C98.5762 38.0836 100.196 38.7334 101.602 39.7265C103.008 40.7197 104.162 42.0287 104.971 43.5484C105.78 45.0681 106.221 46.7563 106.26 48.4774C106.298 50.1985 105.933 51.9048 105.193 53.4591C104.452 55.0135 103.358 56.3727 101.998 57.4278C100.637 58.4829 99.0487 59.2044 97.3591 59.5344V71.8884C99.0493 72.2181 100.639 72.9394 102 73.9944C103.361 75.0494 104.455 76.4088 105.196 77.9635C105.936 79.5181 106.302 81.2247 106.264 82.9463C106.225 84.6679 105.784 86.3565 104.975 87.8766C104.166 89.3967 103.011 90.7059 101.605 91.6992C100.198 92.6926 98.5782 93.3423 96.8751 93.5963C95.1719 93.8502 93.4329 93.7014 91.7976 93.1617C90.1624 92.6219 88.6765 91.7064 87.4591 90.4884C87.2791 90.3084 87.1041 90.1214 86.9371 89.9284L81.5871 93.0164C81.5491 93.0394 81.5091 93.0604 81.4701 93.0804L76.2341 96.1094C76.8047 97.7684 76.9709 99.5397 76.7187 101.276C76.4665 103.012 75.8034 104.663 74.7844 106.091C73.7653 107.519 72.42 108.683 70.8602 109.486C69.3005 110.289 67.5715 110.709 65.8171 110.709C64.0627 110.709 62.3337 110.289 60.774 109.486C59.2142 108.683 57.8688 107.519 56.8498 106.091C55.8308 104.663 55.1676 103.012 54.9155 101.276C54.6633 99.5397 54.8295 97.7684 55.4001 96.1094L50.0491 93.0204L44.6991 89.9314ZM34.2761 76.2384V82.7014H34.2811C34.2807 83.0705 34.3775 83.4331 34.5619 83.7528C34.7462 84.0725 35.0115 84.3379 35.3311 84.5224L40.9311 87.7554C40.1787 88.4342 39.284 88.9362 38.3127 89.2248C37.3413 89.5134 36.3177 89.5812 35.3167 89.4233C34.3157 89.2654 33.3627 88.8857 32.5273 88.3122C31.6919 87.7386 30.9953 86.9855 30.4883 86.1081C29.9814 85.2307 29.677 84.251 29.5973 83.2408C29.5177 82.2306 29.6648 81.2154 30.028 80.2693C30.3911 79.3233 30.9611 78.4704 31.6963 77.773C32.4315 77.0756 33.3132 76.5513 34.2771 76.2384H34.2761ZM97.3581 76.2384C98.3219 76.5513 99.2037 77.0756 99.9389 77.773C100.674 78.4704 101.244 79.3233 101.607 80.2693C101.97 81.2154 102.118 82.2306 102.038 83.2408C101.958 84.251 101.654 85.2307 101.147 86.1081C100.64 86.9855 99.9433 87.7386 99.1079 88.3122C98.2725 88.8857 97.3195 89.2654 96.3185 89.4233C95.3175 89.5812 94.2939 89.5134 93.3225 89.2248C92.3511 88.9362 91.4565 88.4342 90.7041 87.7554L96.1701 84.5994C96.5266 84.4264 96.8272 84.1563 97.0373 83.8203C97.2474 83.4842 97.3586 83.0958 97.3581 82.6994V76.2384ZM72.4661 98.2804L66.8661 101.515C66.5427 101.701 66.1756 101.797 65.8027 101.794C65.4297 101.791 65.0643 101.689 64.7441 101.497L59.1711 98.2804C58.9594 99.2716 58.9719 100.298 59.2078 101.283C59.4437 102.269 59.8969 103.19 60.5344 103.978C61.1718 104.766 61.9774 105.401 62.8921 105.838C63.8068 106.274 64.8075 106.501 65.8211 106.501C66.8347 106.501 67.8354 106.274 68.7501 105.838C69.6648 105.401 70.4703 104.766 71.1078 103.978C71.7453 103.19 72.1985 102.269 72.4344 101.283C72.6703 100.298 72.6828 99.2716 72.4711 98.2804H72.4661ZM34.2761 55.1804C33.3122 54.8676 32.4305 54.3433 31.6953 53.6459C30.9601 52.9485 30.3901 52.0956 30.027 51.1496C29.6638 50.2035 29.5167 49.1883 29.5963 48.1781C29.676 47.1679 29.9804 46.1882 30.4873 45.3108C30.9943 44.4334 31.6909 43.6803 32.5263 43.1067C33.3617 42.5332 34.3147 42.1535 35.3157 41.9956C36.3167 41.8377 37.3403 41.9055 38.3117 42.1941C39.283 42.4827 40.1777 42.9847 40.9301 43.6634L35.4641 46.8194C35.1076 46.9925 34.807 47.2626 34.5969 47.5986C34.3868 47.9347 34.2756 48.3231 34.2761 48.7194V55.1824V55.1804ZM90.7041 43.6634C91.4565 42.9847 92.3511 42.4827 93.3225 42.1941C94.2939 41.9055 95.3175 41.8377 96.3185 41.9956C97.3195 42.1535 98.2725 42.5332 99.1079 43.1067C99.9433 43.6803 100.64 44.4334 101.147 45.3108C101.654 46.1882 101.958 47.1679 102.038 48.1781C102.118 49.1883 101.97 50.2035 101.607 51.1496C101.244 52.0956 100.674 52.9485 99.9389 53.6459C99.2037 54.3433 98.3219 54.8676 97.3581 55.1804V48.7174C97.3585 48.3484 97.2617 47.9858 97.0773 47.6661C96.893 47.3464 96.6277 47.081 96.3081 46.8964L90.7041 43.6634Z" fill="white"/>
<defs>
<linearGradient id="paint0_linear_12_9" x1="41.8988" y1="123.772" x2="110.686" y2="10.8899" gradientUnits="userSpaceOnUse">
<stop stop-color="#E358B1"/>
<stop offset="0.430676" stop-color="#405DCB"/>
<stop offset="0.666667" stop-color="#3F77D2"/>
<stop offset="1" stop-color="#3CE4EF"/>
</linearGradient>
</defs>
</svg>
